# xmcd CD database file
# Generated: Mit Dez 17 19:24:43 2003 by KSCD
# 
# Track frame offsets:
#       150
#       26913
#       50113
#       71153
#       106993
#       129470
#       152900
#       175615
#       198395
#       222053
#
# Disc length: 3502 seconds
#
# Revision: 3
# Processed by: cddbd v1.4PL0 Copyright (c) Steve Scherf et al.
# Submitted via: Kscd 1.3.3
#
DISCID=910dac0a
DTITLE=Sydney Ellis - Ask A Woman Who Knows
DYEAR=1900
DGENRE=
TTITLE0=This Bitter Earth
TTITLE1=In The Dark
TTITLE2=Ask A Woman Who Knows
TTITLE3=Don't Explain
TTITLE4=Willow Weep For Me
TTITLE5=Lover Man Oh Where Can You Be
TTITLE6=Teach Me Tonight
TTITLE7=Another You
TTITLE8=You Don't Know What Love Is
TTITLE9=Nobody's Fool
EXTD=
EXTT0=
EXTT1=
EXTT2=
EXTT3=
EXTT4=
EXTT5=
EXTT6=
EXTT7=
EXTT8=
EXTT9=
PLAYORDER=
